<?xml version="1.0" standalone="no"?>
<!DOCTYPE svg PUBLIC "-//W3C//DTD SVG 20010904//EN"
 "http://www.w3.org/TR/2001/REC-SVG-20010904/DTD/svg10.dtd">
<svg version="1.0" xmlns="http://www.w3.org/2000/svg"
 width="300.000000pt" height="274.000000pt" viewBox="0 0 300.000000 274.000000"
 preserveAspectRatio="xMidYMid meet">
<metadata>
Created by potrace 1.10, written by Peter Selinger 2001-2011
</metadata>
<g transform="translate(0.000000,274.000000) scale(0.100000,-0.100000)"
fill="#000000" stroke="none">
<path d="M1640 2468 c0 -27 37 -320 46 -361 7 -36 12 -35 182 20 l124 40 -167
159 c-91 87 -170 161 -176 162 -5 2 -9 -7 -9 -20z m285 -284 c0 -5 -207 -76
-210 -72 -1 2 -9 57 -19 123 -9 66 -19 138 -23 160 l-6 40 129 -123 c71 -68
129 -126 129 -128z"/>
<path d="M1085 2363 c3 -10 27 -115 51 -233 25 -118 58 -280 75 -360 16 -80
34 -164 38 -188 5 -24 11 -46 14 -49 4 -3 37 17 74 44 111 80 281 193 291 193
12 0 162 -371 162 -399 0 -20 -585 -661 -604 -661 -6 0 -76 65 -156 145 l-144
145 17 297 c17 282 17 298 0 310 -12 10 -74 13 -230 13 -207 0 -213 -1 -213
-20 0 -15 14 -27 52 -44 80 -36 273 -128 277 -131 2 -2 -24 -56 -58 -119 -34
-63 -61 -123 -61 -132 0 -21 203 -471 267 -593 49 -94 50 -117 6 -163 l-26
-27 414 -3 c228 -2 418 0 423 4 5 4 -12 17 -38 29 -25 13 -46 25 -46 28 0 4
99 5 220 3 189 -3 220 -1 220 12 0 8 -38 42 -83 75 -110 79 -112 81 -97 128
22 68 25 68 115 -7 46 -39 86 -66 89 -62 5 9 -8 44 -141 391 l-67 173 12 69
c17 99 49 171 144 321 46 73 111 176 143 228 33 52 100 158 150 235 118 181
131 203 121 212 -4 4 -49 -6 -99 -24 -279 -94 -695 -226 -717 -226 -17 0 -99
54 -250 164 -326 239 -327 239 -340 239 -7 0 -10 -7 -5 -17z m165 -125 c58
-43 167 -122 242 -176 103 -74 134 -102 125 -111 -6 -6 -17 -11 -24 -11 -19 0
-16 -35 7 -80 11 -21 17 -45 15 -52 -3 -7 -54 -45 -113 -85 -59 -39 -131 -88
-160 -109 -62 -44 -63 -43 -81 54 -7 37 -39 197 -71 356 -33 159 -60 291 -60
293 0 8 13 0 120 -79z m1190 -68 c-15 -28 -354 -562 -400 -630 -20 -30 -50
-80 -65 -110 -31 -60 -75 -209 -75 -252 0 -15 41 -133 91 -263 50 -130 89
-238 86 -241 -3 -4 -219 167 -349 276 -53 45 -61 48 -56 21 2 -10 57 -61 123
-113 73 -58 121 -102 123 -115 4 -24 -63 -222 -81 -240 -8 -8 -52 -13 -122
-14 -88 -2 -117 2 -145 16 -69 35 -70 37 -70 162 0 62 -3 113 -7 113 -5 0
-108 -67 -230 -149 -123 -82 -223 -146 -223 -144 0 5 269 300 404 443 67 72
257 278 323 352 23 26 45 58 49 72 4 18 -23 96 -101 291 -60 148 -104 270 -99
274 5 4 104 38 219 74 116 37 296 95 400 130 222 75 219 74 205 47z m-1563
-590 c2 0 -11 -27 -28 -60 -19 -38 -37 -60 -47 -60 -15 0 -262 116 -262 122 0
2 288 0 337 -2z m-7 -318 c-6 -125 -14 -229 -16 -231 -3 -3 -39 29 -80 70
l-76 76 22 38 c12 21 51 97 87 169 36 72 68 125 71 117 2 -7 -1 -115 -8 -239z
m198 -487 c50 -49 92 -93 92 -98 0 -9 -138 -170 -150 -175 -4 -2 -12 10 -18
25 -6 15 -67 149 -136 297 -69 148 -126 272 -126 275 0 3 55 -48 123 -115 67
-66 164 -160 215 -209z m408 -143 c0 -109 6 -118 107 -168 37 -19 67 -36 67
-39 0 -3 -147 -5 -327 -4 -258 0 -324 3 -310 12 10 7 114 75 230 153 117 78
217 140 222 139 6 -1 10 -41 11 -93z m501 -94 l64 -43 -82 -3 c-45 -2 -83 -1
-86 1 -2 3 1 15 6 28 5 13 12 32 15 42 3 9 8 17 12 17 3 0 35 -19 71 -42z"/>
<path d="M1950 1955 c-116 -40 -146 -54 -148 -70 -3 -23 55 -128 68 -123 20 7
240 232 233 238 -5 3 -73 -17 -153 -45z m50 -23 c0 -11 -114 -122 -126 -122
-6 0 -18 16 -27 35 -13 27 -14 37 -4 40 6 2 41 15 77 29 73 28 80 29 80 18z"/>
<path d="M2016 1263 c-19 -106 -20 -137 -3 -150 22 -17 228 -96 234 -89 8 7
-195 324 -208 325 -4 1 -14 -38 -23 -86z m108 -87 c31 -48 56 -91 54 -95 -2
-4 -36 7 -76 26 l-73 33 7 62 c7 69 12 84 24 71 4 -4 33 -48 64 -97z"/>
</g>
</svg>
